<svg xmlns="http://www.w3.org/2000/svg" xmlns:xlink="http://www.w3.org/1999/xlink" width="342" height="334" viewBox="0 0 342 334">
  <defs>
    <clipPath id="clip-iPhone_XR_XS_Max_11_6">
      <rect width="342" height="334"/>
    </clipPath>
  </defs>
  <g id="iPhone_XR_XS_Max_11_6" data-name="iPhone XR, XS Max, 11 – 6" clip-path="url(#clip-iPhone_XR_XS_Max_11_6)">
    <path id="Subtraction_8" data-name="Subtraction 8" d="M121,242A121,121,0,1,1,242,121,121.134,121.134,0,0,1,121,242Zm-.02-208.151c-7.562,0-45.917,2.379-58.57,49.351a36.94,36.94,0,0,0-.965,6.643V208.23c.236-.033,25.474-3.608,28.034-24.249.089-.634.158-1.24.207-1.851v-1.04l.483-44.142a38.876,38.876,0,0,1,2.334-5.674c3.919-8.159,11.954-18.272,28-20.11h0c16.06,1.84,24.086,11.952,28,20.11,3.043,6.386,3.013,7.671,2.885,12.449-.03,1.114-.059,2.376-.059,3.971v34.436c1.625,21.655,27.965,26.059,28.231,26.1V140.312a51.316,51.316,0,0,0-1.526-10.878c-5.692-18.866-16.307-32.345-31.55-40.065a59.544,59.544,0,0,0-25.7-6.462l-.276,0-.335,0a59.443,59.443,0,0,0-29.5,8.594v-.16a18.681,18.681,0,0,1,.679-4.814c2.009-6.755,9.01-22.559,30.614-23.425V33.868h-.01C121.926,33.868,121.611,33.849,120.98,33.849Z" transform="translate(50 46)" opacity="0.65"/>
  </g>
</svg>
