<svg xmlns="http://www.w3.org/2000/svg" xmlns:xlink="http://www.w3.org/1999/xlink" width="342" height="334" viewBox="0 0 342 334">
  <defs>
    <clipPath id="clip-iPhone_XR_XS_Max_11_4">
      <rect width="342" height="334"/>
    </clipPath>
  </defs>
  <g id="iPhone_XR_XS_Max_11_4" data-name="iPhone XR, XS Max, 11 – 4" clip-path="url(#clip-iPhone_XR_XS_Max_11_4)">
    <path id="Union_1" data-name="Union 1" d="M-8.5,146.808V100.4c0-11.235,1.276-11.514-3.857-22.115C-17.34,67.995-28.179,53.714-50.5,51.182-72.825,53.714-83.665,67.995-88.656,78.29a52.633,52.633,0,0,0-3.189,7.638C-92.179,116.05-92.5,145.4-92.5,145.4v1.4q-.1,1.283-.28,2.505C-96.312,177.419-131,181.986-131,181.986V22.45a48.924,48.924,0,0,1,1.324-8.946c19.016-69.769,81.16-66.479,81.16-66.479v39.391C-78.166-12.4-87.631,9.262-90.241,17.986a23.687,23.687,0,0,0-.918,6.483c0,.074,0,.148,0,.224A82.177,82.177,0,0,1-50.5,13.106c6.316-.062,59.677,1.257,78.41,62.693a68.386,68.386,0,0,1,2.079,14.669v91.518S-6.248,176.368-8.5,146.808Z" transform="translate(221.918 102.014)" fill="#22c1b4"/>
  </g>
</svg>
