<svg xmlns="http://www.w3.org/2000/svg" xmlns:xlink="http://www.w3.org/1999/xlink" width="342" height="334" viewBox="0 0 342 334">
  <defs>
    <clipPath id="clip-iPhone_XR_XS_Max_11_5">
      <rect width="342" height="334"/>
    </clipPath>
  </defs>
  <g id="iPhone_XR_XS_Max_11_5" data-name="iPhone XR, XS Max, 11 – 5" clip-path="url(#clip-iPhone_XR_XS_Max_11_5)">
    <path id="Icon_ionic-ios-help-buoy" data-name="Icon ionic-ios-help-buoy" d="M124.235,3.375a120.86,120.86,0,1,0,120.86,120.86A120.841,120.841,0,0,0,124.235,3.375Zm31.726,21.15a104.855,104.855,0,0,1,67.984,67.984L172.346,96a55.792,55.792,0,0,0-19.7-19.756ZM50.266,50.266A103.843,103.843,0,0,1,92.509,24.525l3.312,51.714a57.074,57.074,0,0,0-19.7,19.7L24.467,92.509A105,105,0,0,1,50.266,50.266ZM92.509,223.944A104.855,104.855,0,0,1,24.525,155.96l51.714-3.312a56.256,56.256,0,0,0,19.64,19.64Zm31.726-60.2a39.512,39.512,0,1,1,39.512-39.512A39.553,39.553,0,0,1,124.235,163.746ZM198.2,198.2a104.226,104.226,0,0,1-42.243,25.741l-3.428-51.656a55.97,55.97,0,0,0,19.814-19.872l51.6,3.486A104.045,104.045,0,0,1,198.2,198.2Z" transform="translate(47.055 42.463)"/>
  </g>
</svg>
