<svg xmlns="http://www.w3.org/2000/svg" xmlns:xlink="http://www.w3.org/1999/xlink" width="342" height="334" viewBox="0 0 342 334">
  <defs>
    <clipPath id="clip-iPhone_XR_XS_Max_11_7">
      <rect width="342" height="334"/>
    </clipPath>
  </defs>
  <g id="iPhone_XR_XS_Max_11_7" data-name="iPhone XR, XS Max, 11 – 7" clip-path="url(#clip-iPhone_XR_XS_Max_11_7)">
    <path id="Subtraction_9" data-name="Subtraction 9" d="M-3288.319,886.124h-185.15a37.24,37.24,0,0,1-14.6-2.952A37.459,37.459,0,0,1-3500,875.126a37.452,37.452,0,0,1-8.049-11.927A37.222,37.222,0,0,1-3511,848.6V743.549a37.223,37.223,0,0,1,2.952-14.595A37.451,37.451,0,0,1-3500,717.026a37.463,37.463,0,0,1,11.931-8.046,37.242,37.242,0,0,1,14.6-2.952h185.15a37.245,37.245,0,0,1,14.6,2.952,37.461,37.461,0,0,1,11.931,8.046,37.452,37.452,0,0,1,8.049,11.927,37.218,37.218,0,0,1,2.952,14.595V848.6a37.217,37.217,0,0,1-2.952,14.595,37.453,37.453,0,0,1-8.049,11.927,37.459,37.459,0,0,1-11.931,8.046A37.244,37.244,0,0,1-3288.319,886.124Zm-96.173-99.8a21.014,21.014,0,0,1,11.594,4.961,23.051,23.051,0,0,1,5.7,7.675c1.885,4,1.863,4.885,1.787,7.809-.018.7-.039,1.5-.039,2.5V830.9c.528,7.118,5.244,11.2,9.107,13.366a28.386,28.386,0,0,0,8.341,3.032V804.637a32.822,32.822,0,0,0-.942-6.838c-3.515-11.854-10.079-20.323-19.508-25.172a36.3,36.3,0,0,0-15.875-4.053h-.325a36.33,36.33,0,0,0-18.268,5.4c0-.02,0-.039,0-.059v-.046a11.283,11.283,0,0,1,.416-3.022,21.978,21.978,0,0,1,4.86-8.677c3.525-3.77,8.254-5.8,14.054-6.04V737.772s-.213-.011-.6-.011a37.035,37.035,0,0,0-16.685,4.355c-9.622,5.142-16.186,14.107-19.51,26.646a23.549,23.549,0,0,0-.6,4.17V847.3a27.437,27.437,0,0,0,8.063-2.7c3.769-1.98,8.436-5.76,9.262-12.528.054-.378.1-.771.127-1.168v-.655s.147-13.683.3-27.725a24.91,24.91,0,0,1,1.446-3.56,23.1,23.1,0,0,1,5.7-7.675A21.017,21.017,0,0,1-3384.493,786.325Zm-116.5-83.423v0a19.881,19.881,0,0,1,2.717-9.759,32.323,32.323,0,0,1,6.822-8.249,45.253,45.253,0,0,1,8.933-6.138,37.535,37.535,0,0,1,9.05-3.429l146.932-28.7a29.607,29.607,0,0,1,6.075-.632,29.387,29.387,0,0,1,11.289,2.245,29.594,29.594,0,0,1,9.658,6.454,29.055,29.055,0,0,1,6.435,10.889,39.125,39.125,0,0,1,2.26,12.624v12.82h-179.521c-10.986,0-18.734,3.231-23.3,5.941a28.623,28.623,0,0,0-7.348,5.939Z" transform="translate(3552 -599.001)" fill="#fff"/>
  </g>
</svg>
